<svg xmlns="http://www.w3.org/2000/svg" xmlns:xlink="http://www.w3.org/1999/xlink" width="500" zoomAndPan="magnify" viewBox="0 0 375 374.999991" height="500" preserveAspectRatio="xMidYMid meet" version="1.0"><defs><clipPath id="b0765a27c0"><path d="M 65.027344 76.605469 L 310 76.605469 L 310 298.539062 L 65.027344 298.539062 Z M 65.027344 76.605469 " clip-rule="nonzero"/></clipPath></defs><rect x="-37.5" width="450" fill="#ffffff" y="-37.499999" height="449.999989" fill-opacity="1"/><rect x="-37.5" width="450" fill="#ffffff" y="-37.499999" height="449.999989" fill-opacity="1"/><g clip-path="url(#b0765a27c0)"><path fill="#004aad" d="M 89.792969 85.910156 C 88.691406 84.808594 87.164062 84.125 85.472656 84.125 C 83.789062 84.125 82.257812 84.808594 81.15625 85.910156 C 80.054688 87.015625 79.371094 88.542969 79.371094 90.226562 C 79.371094 91.917969 80.054688 93.445312 81.15625 94.546875 C 82.257812 95.652344 83.789062 96.332031 85.472656 96.332031 C 87.164062 96.332031 88.691406 95.652344 89.792969 94.546875 C 90.898438 93.445312 91.578125 91.917969 91.578125 90.226562 C 91.578125 88.542969 90.898438 87.015625 89.792969 85.910156 M 166.257812 280.445312 C 165.15625 279.339844 163.628906 278.65625 161.9375 278.65625 C 160.253906 278.65625 158.722656 279.339844 157.625 280.445312 C 156.519531 281.546875 155.835938 283.078125 155.835938 284.761719 C 155.835938 286.449219 156.519531 287.976562 157.625 289.078125 C 158.722656 290.183594 160.253906 290.867188 161.9375 290.867188 C 163.628906 290.867188 165.15625 290.183594 166.257812 289.078125 C 167.363281 287.976562 168.046875 286.449219 168.046875 284.761719 C 168.046875 283.078125 167.363281 281.546875 166.257812 280.445312 Z M 65.027344 288.753906 L 115.578125 100.101562 L 153.15625 94.21875 L 98.496094 94.21875 C 97.835938 96.378906 96.65625 98.304688 95.105469 99.859375 C 92.640625 102.320312 89.234375 103.847656 85.472656 103.847656 C 81.71875 103.847656 78.308594 102.320312 75.847656 99.859375 C 73.386719 97.398438 71.859375 93.988281 71.859375 90.226562 C 71.859375 86.46875 73.386719 83.0625 75.847656 80.601562 C 78.308594 78.140625 81.71875 76.613281 85.472656 76.613281 C 89.234375 76.613281 92.640625 78.140625 95.105469 80.601562 C 96.65625 82.152344 97.835938 84.082031 98.496094 86.242188 L 180.972656 86.242188 L 212.589844 180.40625 C 213.609375 183.082031 214.480469 186.839844 215.15625 191.675781 C 215.820312 196.558594 216.3125 202.421875 216.683594 209.277344 C 217.074219 205.710938 217.757812 201.765625 218.632812 197.449219 C 219.496094 193.175781 220.761719 187.917969 222.414062 181.769531 L 248.011719 86.242188 L 309.972656 86.242188 L 255.710938 288.753906 L 174.960938 288.753906 C 174.300781 290.90625 173.121094 292.839844 171.570312 294.390625 C 169.109375 296.851562 165.699219 298.378906 161.9375 298.378906 C 158.183594 298.378906 154.773438 296.851562 152.3125 294.390625 C 149.847656 291.929688 148.324219 288.519531 148.324219 284.761719 C 148.324219 281.003906 149.847656 277.59375 152.3125 275.132812 C 154.773438 272.671875 158.183594 271.144531 161.9375 271.144531 C 165.699219 271.144531 169.109375 272.671875 171.570312 275.132812 C 173.121094 276.6875 174.300781 278.617188 174.960938 280.773438 L 225.078125 280.773438 L 188.167969 272.351562 L 161.953125 195.242188 C 160.949219 192.519531 160.070312 188.621094 159.34375 183.601562 C 158.640625 178.53125 158.121094 172.757812 157.757812 166.230469 C 157.445312 169.847656 156.875 173.554688 156.113281 177.449219 C 155.351562 181.347656 154.019531 186.839844 152.132812 193.882812 L 126.710938 288.753906 Z M 65.027344 288.753906 " fill-opacity="1" fill-rule="nonzero"/></g></svg>